<svg width="162" height="30" viewBox="0 0 162 30" fill="none" xmlns="http://www.w3.org/2000/svg">
<g clip-path="url(#clip0_1_2728)">
<path d="M37.4634 0.380737C37.6702 0.380729 37.8687 0.462213 38.0155 0.607459C38.1624 0.752706 38.2459 0.949958 38.2477 1.15629V29.2174C38.2478 29.4237 38.1661 29.6217 38.0205 29.7683C37.875 29.9149 37.6773 29.9981 37.4705 30H33.6408C33.434 29.9981 33.2363 29.9149 33.0907 29.7683C32.9452 29.6217 32.8635 29.4237 32.8635 29.2174V10.9636C32.562 11.208 32.2511 11.443 31.9308 11.6686C31.0193 12.3032 30.0937 12.839 29.1963 13.3608C28.299 13.8825 27.7054 14.2914 26.9988 14.7074C25.676 15.4698 24.5242 16.4953 23.615 17.7202C22.7058 18.9452 22.0586 20.3435 21.7135 21.8284C21.6748 22.0013 21.578 22.1556 21.4392 22.2659C21.3003 22.3763 21.1279 22.4358 20.9504 22.4348H17.2973C17.1199 22.4358 16.9474 22.3763 16.8086 22.2659C16.6697 22.1556 16.5729 22.0013 16.5342 21.8284C16.1892 20.3416 15.5413 18.9416 14.6308 17.7153C13.7204 16.489 12.5668 15.4628 11.2419 14.7004C10.5353 14.2844 9.82867 13.8261 9.04436 13.3537C8.26004 12.8813 7.22135 12.2961 6.30985 11.6616C5.98953 11.4407 5.67863 11.2056 5.37715 10.9565V29.2174C5.37716 29.4237 5.2955 29.6217 5.14994 29.7683C5.00437 29.9149 4.80669 29.9981 4.5999 30H0.777249C0.570462 29.9981 0.37278 29.9149 0.227217 29.7683C0.0816536 29.6217 -8.39149e-06 29.4237 6.46762e-10 29.2174V1.16335C6.46762e-10 0.955786 0.0826329 0.756726 0.229721 0.609958C0.376808 0.46319 0.576303 0.380737 0.784316 0.380737H4.56457C4.74867 0.383274 4.92601 0.450354 5.06553 0.570233C5.20505 0.690112 5.29785 0.855149 5.32769 1.03644C5.53967 2.40424 6.34518 5.59813 9.29166 7.38191C10.0689 7.8402 10.8391 8.35489 11.687 8.85547C12.5349 9.35606 13.3616 9.81434 14.1671 10.3784C15.8121 11.4696 17.284 12.8004 18.5339 14.3267C18.6046 14.4162 18.6948 14.4885 18.7976 14.5382C18.9004 14.5879 19.0132 14.6138 19.1274 14.6138C19.2417 14.6138 19.3544 14.5879 19.4572 14.5382C19.56 14.4885 19.6502 14.4162 19.7209 14.3267C20.9682 12.7985 22.4377 11.4652 24.0806 10.3713C24.9214 9.80729 25.7976 9.29965 26.5678 8.84842C27.338 8.39719 28.2 7.8402 28.9561 7.38191C31.9096 5.62633 32.7151 2.44654 32.9271 1.03644C32.957 0.855149 33.0498 0.690112 33.1893 0.570233C33.3288 0.450354 33.5061 0.383274 33.6902 0.380737H37.4634Z" fill="#070E38"/>
<path d="M77.4977 14.8061C77.4977 22.9636 69.8171 29.6122 60.3699 29.6122C50.9228 29.6122 43.2422 22.9706 43.2422 14.8061C43.2422 6.6416 50.9228 0 60.3699 0C69.8171 0 77.4977 6.6416 77.4977 14.8061ZM60.3699 5.37955C53.8976 5.37955 48.6335 9.60987 48.6335 14.8061C48.6335 20.0024 53.8976 24.1974 60.3699 24.1974C66.8423 24.1974 72.1135 19.9671 72.1135 14.7779C72.1135 9.58872 66.8423 5.37955 60.3699 5.37955Z" fill="#070E38"/>
<path d="M115.188 14.8061C115.188 22.9636 107.507 29.6122 98.0599 29.6122C88.6128 29.6122 80.9321 22.9706 80.9321 14.8061C80.9321 6.6416 88.6128 0 98.0599 0C107.507 0 115.188 6.6416 115.188 14.8061ZM98.0599 5.37955C91.5875 5.37955 86.3163 9.60987 86.3163 14.8061C86.3163 20.0024 91.5875 24.1974 98.0599 24.1974C104.532 24.1974 109.796 19.9671 109.796 14.7779C109.796 9.58872 104.511 5.37955 98.0599 5.37955Z" fill="#070E38"/>
<path d="M146.094 14.5875V0.775557C146.094 0.673709 146.115 0.572859 146.154 0.478764C146.193 0.384669 146.25 0.299172 146.322 0.227155C146.394 0.155138 146.48 0.0980114 146.574 0.0590359C146.669 0.0200605 146.77 0 146.872 0H150.701C150.803 0 150.905 0.0200605 150.999 0.0590359C151.093 0.0980114 151.179 0.155138 151.251 0.227155C151.323 0.299172 151.38 0.384669 151.419 0.478764C151.459 0.572859 151.479 0.673709 151.479 0.775557V28.8367C151.479 28.9385 151.459 29.0394 151.419 29.1335C151.38 29.2276 151.323 29.3131 151.251 29.3851C151.179 29.4571 151.093 29.5142 150.999 29.5532C150.905 29.5922 150.803 29.6122 150.701 29.6122H146.907C146.805 29.6122 146.704 29.5922 146.61 29.5532C146.515 29.5142 146.43 29.4571 146.357 29.3851C146.285 29.3131 146.228 29.2276 146.189 29.1335C146.15 29.0394 146.13 28.9385 146.13 28.8367V26.6298C146.134 25.939 145.979 25.2565 145.678 24.6346C144.554 22.3643 141.65 18.1622 134.867 15.5887C132.001 14.5321 129.317 13.0384 126.911 11.161C126.797 11.0683 126.659 11.0099 126.513 10.9927C126.368 10.9755 126.22 11.0002 126.088 11.0639C125.956 11.1276 125.845 11.2276 125.767 11.3523C125.69 11.4769 125.651 11.6209 125.653 11.7673V28.8367C125.653 29.0424 125.571 29.2396 125.425 29.3851C125.279 29.5305 125.082 29.6122 124.876 29.6122H121.046C120.84 29.6122 120.642 29.5305 120.496 29.3851C120.35 29.2396 120.269 29.0424 120.269 28.8367V0.775557C120.269 0.569866 120.35 0.372601 120.496 0.227155C120.642 0.0817098 120.84 0 121.046 0H124.77C124.924 0.00306957 125.074 0.0524512 125.2 0.141727C125.326 0.231002 125.422 0.356041 125.476 0.500587C126.091 2.16451 128.649 7.55112 136.739 10.5546C139.667 11.623 142.389 13.1851 144.787 15.1727C144.9 15.27 145.038 15.3329 145.185 15.3541C145.333 15.3752 145.483 15.3537 145.618 15.292C145.754 15.2304 145.869 15.1312 145.949 15.0064C146.03 14.8815 146.073 14.7361 146.073 14.5875H146.094Z" fill="#070E38"/>
<path d="M156.227 26.7284C156.227 26.1577 156.396 25.5999 156.714 25.1256C157.032 24.6512 157.484 24.2816 158.012 24.0636C158.541 23.8455 159.122 23.7888 159.683 23.9007C160.244 24.0125 160.759 24.2878 161.163 24.6918C161.566 25.0958 161.841 25.6103 161.952 26.1701C162.063 26.73 162.004 27.31 161.784 27.8368C161.565 28.3636 161.193 28.8135 160.717 29.1295C160.241 29.4455 159.681 29.6134 159.109 29.6121C158.73 29.6121 158.355 29.5374 158.005 29.3924C157.654 29.2474 157.336 29.0349 157.068 28.767C156.801 28.4992 156.588 28.1812 156.444 27.8314C156.3 27.4816 156.226 27.1067 156.227 26.7284Z" fill="#070E38"/>
</g>
<defs>
<clipPath id="clip0_1_2728">
<rect width="162" height="30" fill="white"/>
</clipPath>
</defs>
</svg>
