<svg width="48" height="48" viewBox="0 0 48 48" fill="none" xmlns="http://www.w3.org/2000/svg">
<rect width="48" height="48" rx="16" fill="white"/>
<path d="M18.0515 13.6968C16.9194 14.8498 16.9194 16.7157 18.0725 17.8688L20.5883 20.3845C22.9573 22.7536 22.9573 26.6111 20.5883 28.9801L15.976 24.3679C14.7915 23.1833 14.194 21.6215 14.194 20.0701C14.194 18.5187 14.7915 16.9568 15.976 15.7723L18.0201 13.7282C18.0306 13.7177 18.041 13.7073 18.0515 13.6968Z" fill="#5D5FEF"/>
<path d="M20.0642 19.8594L18.0726 17.8677C16.9195 16.7147 16.909 14.8593 18.0516 13.6957C19.1837 12.5846 20.9867 12.6056 22.1083 13.7272C22.6743 14.2932 22.9574 15.0375 22.9574 15.7712C22.9574 16.505 22.6743 17.2493 22.1083 17.8153L21.6366 18.287" fill="#5D5FEF"/>
<path d="M29.9486 34.2941C31.0807 33.141 31.0807 31.2751 29.9277 30.1221L27.4119 27.6063C25.0429 25.2373 25.0429 21.3798 27.4119 19.0107L32.0241 23.623C33.2086 24.8075 33.8061 26.3694 33.8061 27.9208C33.8061 29.4722 33.2086 31.0341 32.0241 32.2186L29.9801 34.2626C29.9591 34.2836 29.9486 34.2941 29.9486 34.2941Z" fill="#5D5FEF"/>
<path d="M27.9251 28.1409L29.9167 30.1325C31.0698 31.2856 31.0803 33.141 29.9377 34.3045C28.8056 35.4157 27.0026 35.3947 25.881 34.2731C25.3149 33.707 25.0319 32.9628 25.0319 32.229C25.0319 31.4952 25.3149 30.751 25.881 30.1849L26.3632 29.7027" fill="#5D5FEF"/>
</svg>
